<?xml version="1.0" standalone="no"?>
<!DOCTYPE svg PUBLIC "-//W3C//DTD SVG 20010904//EN"
 "http://www.w3.org/TR/2001/REC-SVG-20010904/DTD/svg10.dtd">
<svg version="1.0" xmlns="http://www.w3.org/2000/svg"
 width="481.000000pt" height="481.000000pt" viewBox="0 0 481.000000 481.000000"
 preserveAspectRatio="xMidYMid meet">
<metadata>
Created by potrace 1.11, written by Peter Selinger 2001-2013
</metadata>
<g transform="translate(0.000000,481.000000) scale(0.100000,-0.100000)"
fill="#000000" stroke="none">
<path d="M2285 4600 c-97 -34 -235 -106 -310 -162 -126 -95 -219 -270 -277
-522 -31 -135 -34 -158 -47 -336 -5 -58 -11 -118 -15 -135 -6 -22 -5 -26 3
-15 9 12 31 -6 126 -100 63 -63 115 -119 114 -125 0 -5 -3 -4 -6 3 -4 10 -8
10 -20 0 -14 -11 -15 -10 -8 12 7 24 7 25 -12 7 -20 -17 -20 -17 -16 10 4 24
3 25 -7 10 -14 -22 -30 -13 -30 16 0 16 -3 18 -9 8 -7 -10 -18 -4 -51 28 -23
22 -43 41 -44 41 -2 0 0 -15 2 -32 3 -18 2 -30 -2 -27 -4 3 -7 22 -8 42 -1 23
-11 48 -27 68 l-26 31 -25 -27 c-17 -18 -20 -24 -7 -19 9 3 17 1 17 -4 0 -6
-10 -12 -21 -14 -12 -2 -33 -18 -47 -36 l-25 -33 27 11 c47 18 76 13 77 -12 0
-13 3 -17 6 -10 7 18 20 15 26 -8 6 -24 9 -24 -53 0 l-51 20 -24 -25 c-14 -13
-25 -33 -25 -44 0 -11 -7 -26 -15 -35 -9 -8 -15 -18 -15 -21 0 -3 -7 -20 -17
-38 -13 -24 -18 -28 -21 -14 -2 9 -8 17 -13 17 -12 0 -12 -47 1 -55 6 -3 10
-18 10 -33 -1 -25 -2 -25 -19 11 l-18 38 -11 -39 c-7 -22 -12 -42 -12 -44 0
-3 21 -11 48 -18 64 -18 75 -30 25 -30 -23 0 -45 5 -48 10 -14 22 -35 10 -35
-20 0 -28 24 -44 32 -20 2 5 22 6 53 1 28 -5 44 -9 37 -10 -21 -2 -3 -21 20
-21 15 0 18 -4 13 -17 -4 -10 -9 -25 -12 -34 -4 -14 -10 -14 -54 7 -27 13 -49
29 -49 34 0 6 -11 10 -25 10 -24 0 -25 -3 -25 -54 0 -30 5 -58 10 -61 6 -4 4
-12 -5 -21 -8 -9 -15 -22 -15 -31 0 -11 6 -8 20 10 11 14 20 30 20 35 0 5 6
14 13 20 10 9 17 4 31 -18 21 -37 31 -37 52 -5 9 14 19 24 21 21 7 -7 -25 -63
-51 -90 -28 -27 -33 -74 -7 -53 12 10 14 9 8 -8 -5 -14 2 -10 20 12 33 38 103
70 103 48 0 -18 -11 -24 -49 -27 -28 -2 -30 -4 -15 -15 9 -7 21 -14 27 -16 5
-1 7 -13 3 -25 -6 -17 -15 -22 -39 -22 -37 0 -111 21 -156 45 -36 18 -39 17
-117 -50 -134 -114 -138 -119 -303 -323 -32 -40 -81 -115 -108 -166 -53 -97
-107 -225 -100 -232 3 -3 19 30 37 73 56 138 171 320 193 306 6 -3 7 -1 4 4
-4 6 0 16 8 23 8 7 15 9 15 4 0 -4 10 2 23 13 24 23 223 123 244 123 25 0 13
-19 -17 -25 -17 -4 -28 -10 -25 -14 2 -5 -13 -13 -34 -19 -26 -8 -54 -31 -92
-74 -30 -34 -87 -94 -128 -135 -89 -88 -86 -97 4 -13 36 34 69 58 74 56 5 -3
12 1 15 9 3 9 18 20 32 25 24 10 25 12 10 23 -14 10 -7 12 38 12 31 0 54 -4
53 -10 -1 -5 9 -9 23 -8 l25 3 -23 -10 c-13 -6 -29 -7 -35 -3 -7 4 -8 0 -4
-11 4 -9 3 -14 -2 -11 -9 5 -88 -47 -140 -93 -30 -27 -11 -19 34 13 17 12 37
25 45 29 8 4 2 -3 -15 -15 -90 -68 -187 -191 -273 -350 -45 -81 -49 -94 -29
-84 6 4 5 1 -3 -7 -14 -12 -70 -119 -70 -133 0 -7 -14 -40 -39 -95 -10 -23
-11 -22 -5 9 15 81 105 271 206 433 32 52 43 78 34 78 -8 0 -28 -16 -44 -36
-31 -37 -152 -265 -152 -286 -1 -19 -90 -156 -90 -137 0 8 6 21 13 28 7 7 12
37 11 79 -1 40 2 59 6 47 7 -18 9 -18 19 8 6 16 11 32 11 37 0 5 7 29 15 54
10 29 12 52 6 67 -8 22 -10 21 -22 -21 -7 -25 -16 -47 -20 -50 -17 -12 -70
-177 -89 -273 -26 -133 -52 -418 -58 -637 -4 -177 10 -536 31 -755 l12 -120
1374 -3 c1089 -2 1377 1 1389 10 13 10 14 10 8 1 -6 -10 47 -13 248 -13 l256
0 0 95 0 95 53 26 c67 34 138 83 155 106 8 10 19 17 26 16 15 -4 68 37 59 46
-3 3 4 6 16 6 12 0 19 4 16 10 -3 5 -1 10 5 10 7 0 9 7 6 16 -3 8 -2 12 4 9 5
-3 9 9 8 30 l-1 35 -24 -22 c-12 -12 -23 -17 -23 -10 0 6 11 19 24 30 23 18
24 21 11 46 -8 15 -14 30 -13 34 1 4 -4 20 -11 36 l-12 30 -19 -31 c-23 -39
-35 -46 -61 -38 -21 7 -21 29 -1 31 7 1 22 3 35 4 21 2 21 2 -3 10 -17 5 -19
8 -7 9 9 1 17 7 17 14 0 8 27 37 60 64 32 28 56 53 53 57 -4 3 -2 6 4 6 14 0
46 87 37 101 -5 8 -3 9 6 4 10 -6 12 -3 8 13 -4 12 -3 20 2 17 12 -8 19 32 7
44 -8 8 -7 11 4 11 26 0 52 108 51 210 0 75 -3 89 -17 84 -7 -3 -18 10 -24 28
-7 18 -17 42 -23 52 -8 15 -7 18 6 13 10 -4 16 -1 16 8 0 8 -7 15 -16 15 -13
0 -14 3 -5 14 8 9 8 16 2 20 -6 4 -8 13 -5 21 4 8 -1 18 -10 21 -9 3 -16 13
-16 21 0 8 5 11 12 7 7 -4 8 -3 4 5 -4 6 -11 9 -15 6 -5 -2 -11 16 -15 42 -3
26 -12 54 -20 62 -8 9 -16 25 -18 36 -3 18 -12 20 -103 21 -55 1 -113 4 -130
8 -16 3 -55 8 -85 10 -55 5 -84 24 -74 50 3 7 -1 18 -9 24 -11 9 -13 6 -9 -17
2 -16 -2 -39 -9 -52 -7 -13 -13 -28 -14 -34 0 -17 -55 -17 -80 -1 -21 14 -24
14 -30 -2 -81 -204 -109 -349 -104 -533 4 -104 2 -120 -12 -124 -10 -3 -53
-28 -98 -54 l-81 -49 -18 26 c-11 15 -35 59 -56 97 -48 92 -131 211 -144 208
-6 -2 -19 14 -28 35 -25 53 -75 122 -90 122 -6 0 -15 11 -18 25 -4 14 -11 25
-17 25 -8 0 -7 -5 1 -15 18 -22 3 -18 -20 5 -30 30 -41 16 -25 -30 8 -22 10
-40 5 -40 -5 0 -12 9 -15 20 -3 11 -11 20 -16 20 -5 0 -18 9 -28 19 -15 15
-19 28 -14 55 4 24 2 36 -6 36 -7 0 -9 -5 -6 -10 3 -5 1 -10 -5 -10 -6 0 -8
-10 -4 -26 5 -19 4 -25 -5 -20 -6 4 -11 2 -11 -4 0 -7 6 -10 13 -7 9 3 13 -6
13 -32 1 -20 6 -54 13 -76 6 -22 13 -44 14 -50 1 -5 6 -16 11 -24 6 -9 5 -12
-5 -9 -8 3 -22 1 -31 -4 -15 -7 -18 -4 -18 21 0 16 -5 31 -11 33 -7 2 -11 27
-10 66 1 55 -2 64 -26 87 -16 14 -22 25 -14 25 11 0 11 3 1 15 -7 8 -10 15 -6
15 3 0 1 11 -4 25 -6 17 -6 25 1 25 6 0 7 6 3 13 -6 9 -3 8 8 -1 10 -8 14 -20
11 -29 -5 -12 -3 -14 7 -8 9 6 12 4 8 -6 -3 -8 -1 -25 6 -36 9 -18 10 -6 8 60
-3 63 -14 113 -48 216 -23 73 -50 141 -58 150 -14 16 -14 24 6 85 12 38 24 62
28 55 6 -8 9 -8 13 2 4 10 6 10 6 2 1 -15 31 -18 31 -3 0 6 7 10 15 10 8 0 15
-7 15 -15 0 -17 16 -20 25 -5 3 6 23 7 44 4 27 -4 40 -2 50 10 8 10 22 14 36
10 13 -3 26 -1 29 5 4 5 14 7 23 4 11 -4 14 -3 9 5 -7 11 -2 13 44 16 10 1 15
11 14 29 -1 15 2 27 7 27 5 0 6 6 3 13 -2 7 0 24 5 38 9 21 10 21 11 4 1 -19
2 -18 21 5 l20 24 -23 10 c-19 7 -20 10 -6 13 9 2 22 20 28 39 6 19 16 32 21
29 5 -4 9 -4 9 -2 0 3 7 21 15 40 14 34 14 36 -2 31 -10 -3 -6 3 10 12 15 10
27 25 27 33 0 11 -4 10 -15 -5 -8 -10 -15 -14 -15 -8 0 14 35 46 43 39 4 -3 5
-2 2 1 -2 4 0 15 6 26 6 11 11 32 11 48 1 16 4 27 8 25 14 -9 20 27 8 43 -11
13 -10 15 6 9 15 -6 17 -5 7 7 -9 11 -9 15 1 18 10 4 10 8 -1 21 -11 14 -11
20 -1 32 7 8 15 13 19 10 4 -2 6 9 3 24 -2 16 5 46 16 67 10 21 27 70 38 107
19 67 19 68 49 63 27 -5 50 -2 110 19 14 4 12 1 -5 -9 -14 -8 -20 -15 -13 -16
16 0 76 56 79 74 3 19 34 64 34 49 0 -7 -4 -15 -10 -18 -5 -3 -10 -11 -10 -17
0 -16 55 62 85 121 14 29 23 57 19 63 -4 7 -3 8 4 4 6 -4 18 4 26 16 22 34 49
101 37 94 -5 -4 -11 4 -13 16 -2 18 -28 36 -120 82 l-118 60 0 170 c-1 216
-10 283 -50 374 -18 40 -34 71 -35 70 -2 -2 10 -43 26 -92 41 -125 50 -205 42
-369 -3 -78 -8 -136 -11 -128 -5 15 -42 55 -42 44 0 -3 -8 1 -18 10 -15 13
-21 14 -32 4 -10 -10 -11 -9 -5 2 5 9 3 12 -6 9 -8 -3 -25 3 -38 14 -23 17
-25 17 -43 2 -20 -19 -26 -6 -6 14 9 9 9 12 0 12 -6 0 -16 -8 -21 -17 -10 -17
-10 -16 -11 2 -1 19 -1 19 -11 1 -9 -15 -13 -16 -20 -5 -5 9 -25 13 -59 12
-29 -1 -50 2 -50 8 0 6 -4 8 -9 4 -13 -7 -62 16 -55 26 3 5 -2 6 -12 2 -13 -5
-15 -2 -9 18 5 18 4 20 -4 9 -9 -13 -13 -12 -26 8 -12 16 -23 21 -41 18 -14
-3 -46 1 -71 9 -25 8 -49 14 -52 13 -3 0 -8 1 -11 2 -3 1 -29 4 -59 6 -30 2
-57 8 -61 14 -4 7 -11 11 -16 11 -21 -2 -44 11 -44 25 0 11 6 13 20 9 22 -7
28 10 8 19 -7 4 -3 4 9 2 14 -2 20 0 17 9 -3 7 2 15 10 18 9 4 16 12 16 18 0
8 -5 8 -16 -2 -13 -10 -17 -10 -25 2 -12 19 -11 39 2 39 6 0 8 9 3 23 -4 12
-8 32 -8 43 -1 12 -10 31 -20 43 -13 14 -21 41 -24 78 -4 52 -3 56 15 51 12
-3 20 0 20 8 0 8 -12 14 -26 15 l-26 1 25 8 25 8 -23 7 c-12 4 -25 18 -28 31
-4 14 -11 21 -20 17 -22 -8 -28 26 -9 47 16 18 17 20 2 20 -19 0 -23 20 -4 20
7 1 5 6 -6 14 -17 13 -17 15 4 35 13 12 32 21 44 21 11 0 27 6 34 13 10 8 12
8 7 0 -3 -6 -2 -14 4 -18 5 -3 10 -1 10 5 0 6 4 9 9 6 5 -3 14 1 21 9 11 13
10 14 -2 10 -8 -3 -20 0 -26 8 -10 12 0 12 70 0 46 -7 91 -18 100 -23 10 -5
24 -7 33 -4 8 3 15 1 15 -5 0 -6 9 -11 19 -11 11 0 23 -4 26 -10 3 -5 11 -10
16 -10 6 0 8 4 4 9 -3 5 -1 12 5 16 5 3 10 2 10 -4 0 -5 9 -9 20 -8 14 1 19 6
15 16 -3 8 6 2 20 -13 26 -28 33 -42 14 -31 -17 11 -62 14 -51 3 5 -5 25 -10
45 -11 19 -1 44 -10 55 -20 11 -10 26 -15 36 -11 10 4 16 1 16 -7 1 -9 6 -7
16 6 14 18 15 18 12 2 -3 -16 5 -19 52 -23 30 -2 57 -9 58 -14 2 -6 11 -10 19
-10 9 0 22 -8 30 -17 12 -14 12 -13 0 7 -9 14 -20 24 -26 23 -6 -2 -11 6 -11
17 0 20 -66 93 -126 140 -18 14 -66 51 -107 83 -41 31 -103 69 -138 84 -63 27
-66 27 -329 30 -246 3 -269 2 -325 -17z m570 -148 c-3 -3 -11 0 -18 7 -9 10
-8 11 6 5 10 -3 15 -9 12 -12z m91 -39 c-10 -10 -19 5 -10 18 6 11 8 11 12 0
2 -7 1 -15 -2 -18z m-29 11 c-3 -3 -12 -4 -19 -1 -8 3 -5 6 6 6 11 1 17 -2 13
-5z m183 -74 c0 -5 8 -10 18 -10 10 0 27 -7 38 -15 18 -13 18 -14 -5 -8 -17 4
-22 3 -17 -5 12 -20 -2 -13 -29 13 -27 28 -30 35 -15 35 6 0 10 -4 10 -10z
m130 -30 c0 -5 -7 -7 -15 -4 -8 4 -12 10 -9 15 6 11 24 2 24 -11z m30 1 c0 -6
-4 -12 -8 -15 -5 -3 -9 1 -9 9 0 8 4 15 9 15 4 0 8 -4 8 -9z m-1257 -531 c-33
-13 -28 -38 10 -54 23 -11 27 -14 12 -15 -11 0 -31 6 -45 14 -14 8 -37 14 -52
15 -18 0 -28 5 -28 15 0 20 35 34 85 34 34 0 36 -2 18 -9z m-263 -20 c0 -5 -5
-10 -12 -10 -6 0 -23 -10 -36 -22 l-25 -23 12 23 c10 18 33 35 59 41 1 1 2 -3
2 -9z m112 -37 c23 -27 30 -43 19 -43 -5 0 -19 14 -31 30 -23 32 -13 42 12 13z
m916 -27 c92 -24 138 -43 72 -29 -73 14 -204 51 -185 52 11 0 62 -10 113 -23z
m-168 -211 c-7 -47 -18 -89 -23 -92 -5 -3 -7 6 -3 23 3 16 11 60 17 97 6 37
14 66 17 63 3 -3 -1 -44 -8 -91z m-902 60 c-6 -14 -13 -23 -15 -21 -5 5 15 46
22 46 3 0 -1 -11 -7 -25z m290 -61 c0 -20 -6 -38 -13 -40 -7 -3 -13 -15 -14
-27 -3 -62 -7 -86 -14 -94 -5 -4 -6 24 -4 62 4 45 9 69 17 67 6 -1 10 3 9 10
-3 13 10 58 16 58 2 0 3 -16 3 -36z m496 -117 c4 -42 -9 -41 -17 0 -3 16 -9
37 -13 48 -6 19 -6 19 10 4 10 -9 19 -32 20 -52z m719 -166 c28 -59 42 -103
44 -140 2 -34 10 -62 21 -75 9 -10 11 -16 5 -12 -7 4 -13 2 -13 -3 0 -6 -4
-11 -9 -11 -5 0 -9 6 -8 13 1 37 -4 44 -26 40 -15 -3 -34 4 -53 20 -16 13 -47
33 -69 43 -37 17 -40 23 -43 62 -2 29 0 42 7 37 7 -3 11 3 11 16 0 19 2 20 17
8 15 -12 16 -12 10 5 -9 23 38 100 55 90 6 -4 29 -46 51 -93z m-1487 63 c-3
-9 -6 -18 -6 -20 0 -3 -4 -2 -10 1 -5 3 -10 0 -10 -8 0 -7 -6 -14 -14 -14 -11
0 -9 8 7 29 22 30 43 38 33 12z m2010 -22 c-17 -16 -18 -16 -5 5 7 12 15 20
18 17 3 -2 -3 -12 -13 -22z m-1976 -15 c0 -2 -10 -12 -22 -23 l-23 -19 19 23
c18 21 26 27 26 19z m1927 -69 c-3 -8 -6 -5 -6 6 -1 11 2 17 5 13 3 -3 4 -12
1 -19z m-732 -23 c-16 -8 -41 -14 -55 -14 -17 0 -11 5 20 13 59 17 72 18 35 1z
m-1110 -41 c-20 -15 -87 -16 -79 -2 3 5 19 6 34 3 23 -5 32 -2 42 14 8 13 15
16 17 9 2 -6 -4 -17 -14 -24z m1189 6 c24 -29 26 -60 4 -60 -14 0 -49 20 -71
40 -18 17 -18 18 4 34 31 21 33 21 63 -14z m627 7 c-10 -9 -11 -8 -5 6 3 10 9
15 12 12 3 -3 0 -11 -7 -18z m-1951 -5 c-8 -3 -21 -11 -28 -19 -7 -7 -18 -13
-23 -13 -6 0 2 11 18 24 15 13 32 22 37 18 6 -3 4 -8 -4 -10z m40 4 c0 -3 -4
-8 -10 -11 -5 -3 -10 -1 -10 4 0 6 5 11 10 11 6 0 10 -2 10 -4z m46 -65 c15
-9 11 -10 -26 -5 -25 3 -55 7 -68 10 -16 3 -34 -5 -58 -26 -19 -16 -44 -30
-55 -30 -21 0 -17 20 4 20 7 1 26 12 42 25 26 21 38 25 86 21 31 -2 64 -8 75
-15z m1754 -46 c0 -2 -10 -9 -22 -15 -22 -11 -22 -10 -4 4 21 17 26 19 26 11z
m-691 -57 c24 -26 57 -52 77 -58 l36 -12 -24 -12 c-32 -17 -79 -30 -97 -27 -8
1 -10 -2 -5 -10 4 -8 3 -10 -5 -5 -6 4 -18 0 -27 -8 -12 -12 -20 -13 -35 -5
-11 6 -25 8 -32 5 -7 -2 -4 -5 6 -5 9 -1 17 -6 17 -12 0 -5 -5 -7 -11 -3 -6 3
-15 1 -19 -7 -7 -10 -11 -10 -25 1 -11 9 -13 16 -5 24 13 13 13 29 1 21 -13
-7 -41 34 -41 62 0 12 5 25 11 29 8 4 7 9 -2 15 -20 14 28 52 58 46 12 -2 20
-1 18 3 -2 4 11 7 29 6 27 -1 42 -10 75 -48z m-179 35 c0 -5 -17 -9 -38 -10
-28 -1 -32 1 -17 7 26 11 55 12 55 3z m547 -150 c24 -43 26 -57 23 -128 -2
-30 -5 -40 -7 -25 -3 14 -9 28 -14 31 -6 3 -11 19 -13 35 -2 16 -4 32 -5 35 0
4 -14 21 -30 40 -32 37 -32 49 3 49 15 0 29 -11 43 -37z m-1472 -73 c6 -45
-14 -25 -21 21 -4 25 -3 31 6 23 6 -6 13 -26 15 -44z m1348 4 c57 -8 91 -25
96 -49 3 -16 1 -17 -11 -7 -11 9 -23 9 -47 1 -26 -9 -35 -8 -49 4 -25 21 -60
30 -115 28 -36 -1 -48 2 -45 11 5 15 71 28 106 21 13 -2 43 -6 65 -9z m-183
-18 c0 -3 -4 -8 -10 -11 -5 -3 -10 -1 -10 4 0 6 5 11 10 11 6 0 10 -2 10 -4z
m-1216 -121 c-4 -8 -10 -15 -15 -15 -5 0 -9 7 -9 15 0 8 7 15 15 15 9 0 12 -6
9 -15z m1141 1 c20 3 23 1 19 -13 -5 -17 -5 -17 6 0 14 22 38 21 125 -3 39
-11 81 -20 95 -20 35 0 50 -17 50 -56 0 -28 -5 -34 -34 -44 -47 -15 -136 2
-171 32 -15 13 -28 21 -29 18 -4 -9 -36 28 -36 42 -1 7 -7 2 -14 -11 l-13 -24
-22 22 c-11 11 -25 21 -29 21 -5 0 -17 10 -28 21 -19 22 -19 22 9 17 15 -3 30
-1 34 5 5 8 8 8 10 0 2 -6 15 -9 28 -7z m-1430 -59 c27 -44 28 -47 16 -47 -6
0 -19 10 -31 22 -11 12 -20 16 -20 9 0 -8 -15 -11 -42 -10 -24 1 -50 -1 -58
-5 -9 -4 -24 0 -35 8 -18 13 -18 15 -1 41 10 15 20 24 24 21 3 -4 0 -12 -6
-18 -7 -7 -12 -17 -12 -22 0 -6 9 3 20 19 12 18 20 24 21 15 0 -9 2 -11 5 -3
3 7 12 9 20 6 8 -3 14 -2 13 3 -4 21 3 23 34 8 18 -9 41 -30 52 -47z m124 -24
c54 -42 19 -39 -41 3 -73 52 -79 58 -34 40 22 -9 56 -29 75 -43z m1244 -91
c24 -43 -2 -37 -39 8 -20 25 -22 29 -6 16 23 -20 31 -10 10 14 -11 12 -10 12
2 3 8 -6 23 -25 33 -41z m-133 -26 c0 -2 -7 -7 -16 -10 -8 -3 -12 -2 -9 4 6
10 25 14 25 6z m70 -38 c0 -6 -7 -5 -15 2 -8 7 -15 17 -15 22 0 6 7 5 15 -2 8
-7 15 -17 15 -22z m452 -60 c-7 -7 -12 -8 -12 -2 0 14 12 26 19 19 2 -3 -1
-11 -7 -17z m-2009 -188 c-10 -11 -23 -20 -30 -20 -7 0 -13 -7 -13 -14 0 -13
5 -13 35 0 36 15 70 10 44 -7 -11 -6 -10 -9 3 -14 15 -6 14 -9 -3 -26 -11 -11
-24 -17 -29 -14 -6 4 -10 -1 -10 -10 0 -9 -5 -13 -10 -10 -6 3 -13 -1 -16 -9
-3 -9 -12 -16 -19 -16 -8 0 -20 -6 -27 -13 -28 -28 -109 -78 -117 -73 -5 3
-14 -1 -21 -9 -7 -8 -17 -15 -23 -15 -6 0 -4 6 4 13 8 6 28 30 44 52 16 22 34
43 39 47 6 4 8 8 4 8 -18 0 131 150 149 150 9 0 7 -6 -4 -20z m111 -16 c3 -8
2 -12 -4 -9 -6 3 -10 10 -10 16 0 14 7 11 14 -7z m-24 -25 c0 -14 -17 -10 -23
5 -4 10 -1 13 9 9 7 -3 14 -9 14 -14z m1794 3 c3 -5 -1 -9 -9 -9 -8 0 -12 4
-9 9 3 4 7 8 9 8 2 0 6 -4 9 -8z m-693 -83 c13 -26 7 -24 -22 7 -17 19 -19 23
-6 18 10 -3 22 -15 28 -25z m-921 -49 c0 -11 -4 -20 -10 -20 -5 0 -10 2 -10 4
0 2 -3 11 -6 20 -4 11 -1 16 10 16 9 0 16 -8 16 -20z m-133 -14 c5 -5 3 -6 -4
-2 -9 5 -13 0 -13 -12 0 -11 -10 -27 -22 -36 l-23 -17 23 6 c15 4 22 2 22 -8
0 -22 -11 -27 -32 -16 -24 13 -51 -6 -43 -30 3 -10 -4 -22 -16 -29 -12 -8 -18
-9 -14 -3 3 6 8 30 11 53 3 24 12 51 21 60 9 10 12 18 8 18 -5 0 -1 6 9 13 20
15 60 16 73 3z m608 4 c3 -6 -1 -7 -9 -4 -18 7 -21 14 -7 14 6 0 13 -4 16 -10z
m-707 -19 c10 -6 10 -10 -3 -21 -8 -7 -15 -21 -15 -31 0 -10 -10 -23 -22 -29
-22 -11 -22 -10 -4 4 15 12 16 16 5 16 -8 0 -21 -6 -28 -12 -11 -10 -14 -10
-18 0 -6 17 -32 15 -39 -2 -3 -9 -12 -12 -21 -9 -9 4 -14 2 -10 -3 3 -6 -3
-11 -14 -11 -43 -4 19 51 95 84 61 25 58 25 74 14z m142 -10 c0 -11 -4 -22 -9
-25 -5 -3 -8 5 -7 19 1 29 16 34 16 6z m645 -1 c3 -5 2 -10 -4 -10 -5 0 -13 5
-16 10 -3 6 -2 10 4 10 5 0 13 -4 16 -10z m-449 -37 c-3 -8 -2 -12 3 -9 5 3
16 -16 26 -42 10 -26 25 -57 33 -70 8 -12 12 -33 10 -47 -4 -17 -1 -25 9 -25
8 0 17 -9 20 -21 5 -16 8 -18 15 -7 8 10 9 10 6 -2 -6 -19 -64 -20 -60 -1 3
12 1 12 -13 1 -13 -11 -13 -15 -3 -22 10 -7 10 -8 -2 -5 -8 2 -14 10 -12 16 1
6 -5 11 -14 11 -9 0 -12 5 -8 13 5 7 0 6 -11 -3 -10 -8 -16 -10 -12 -3 4 6 3
14 -3 18 -6 4 -8 10 -5 15 3 5 1 20 -5 34 -7 19 -6 26 3 26 8 0 8 3 2 8 -13 9
-19 77 -8 94 8 13 9 18 12 39 0 5 6 7 12 4 6 -4 8 -14 5 -22z m357 9 c13 2 29
-1 35 -9 15 -15 36 -18 27 -3 -9 14 1 12 38 -7 18 -9 34 -18 37 -18 30 -5 162
-109 152 -120 -4 -5 -2 -5 5 -1 13 7 88 -57 88 -76 1 -7 7 -11 15 -10 8 2 12
1 9 -3 -4 -3 -3 -22 1 -42 8 -34 -2 -58 -26 -66 -4 -1 -8 -14 -8 -29 -1 -18 2
-23 10 -17 7 6 16 3 25 -8 13 -16 12 -17 -2 -5 -14 10 -18 10 -23 -3 -3 -9 -2
-13 4 -10 6 3 10 1 10 -4 0 -6 -6 -11 -12 -12 -10 0 -10 -2 -1 -5 8 -4 9 -13
1 -35 -5 -16 -14 -26 -19 -23 -5 3 -6 -2 -3 -11 6 -14 8 -14 21 2 13 17 13 16
4 -3 -6 -12 -8 -31 -6 -43 3 -14 0 -19 -7 -15 -8 5 -9 1 -5 -11 4 -9 2 -24 -5
-33 -10 -12 -10 -16 0 -19 6 -3 12 -12 12 -21 0 -15 -2 -15 -11 -2 -9 12 -9
11 -4 -5 4 -11 8 -32 8 -47 0 -16 4 -28 8 -28 16 0 -2 -74 -21 -87 -11 -8 -20
-20 -19 -26 0 -9 2 -9 5 -1 8 20 44 3 43 -20 0 -20 -1 -20 -9 -1 -5 11 -9 14
-9 7 -1 -7 -7 -12 -13 -11 -7 1 -22 1 -33 0 -17 -1 -18 -3 -5 -11 14 -9 7 -14
-13 -11 -5 1 -6 -3 -2 -8 3 -6 12 -8 20 -5 9 4 12 -1 11 -13 -2 -11 -11 -17
-22 -16 -18 1 -18 1 0 -13 18 -13 18 -14 2 -14 -10 0 -14 -4 -10 -12 5 -8 2
-9 -9 -5 -9 3 -16 3 -16 -1 1 -4 0 -9 -1 -12 -7 -20 -7 -40 2 -40 6 0 8 7 5
15 -4 8 -2 17 2 19 5 3 8 -4 7 -16 -1 -15 -10 -25 -26 -29 -14 -4 -20 -7 -13
-8 7 -1 10 -8 7 -16 -5 -11 -2 -13 10 -9 9 3 13 10 10 15 -3 5 1 9 9 9 8 0 20
7 27 15 7 8 17 15 23 15 5 0 -2 -9 -17 -21 -14 -11 -26 -25 -26 -31 0 -6 10
-3 22 8 12 10 18 14 15 7 -4 -7 5 -15 23 -21 23 -8 28 -15 23 -29 -6 -15 -4
-16 9 -5 13 10 18 10 24 1 4 -8 3 -9 -5 -5 -6 4 -14 0 -18 -9 -5 -16 -7 -16
-15 -1 -5 9 -6 21 -2 28 5 7 2 9 -9 5 -9 -3 -18 -1 -20 6 -2 7 -6 0 -9 -15 -4
-19 -1 -25 8 -21 8 3 17 -2 20 -11 3 -9 14 -16 23 -16 11 0 9 -4 -8 -13 -21
-11 -28 -36 -8 -29 5 1 6 -2 2 -7 -6 -11 -35 -4 -35 9 0 4 6 13 14 20 8 6 12
18 10 25 -7 17 -50 1 -58 -21 -7 -19 3 -17 28 3 21 18 21 18 3 -3 -9 -11 -14
-24 -10 -29 5 -4 1 -5 -7 -1 -8 4 -5 -1 8 -10 12 -9 22 -21 22 -26 0 -6 -6 -6
-14 1 -11 9 -15 9 -19 -1 -3 -8 -6 -6 -6 5 -1 10 -5 16 -10 13 -5 -3 -7 -14
-4 -24 2 -10 -3 -24 -11 -31 -11 -9 -16 -10 -16 -2 0 6 5 11 11 11 5 0 7 5 3
12 -14 22 -13 56 1 68 8 6 12 20 10 30 -2 11 1 22 6 25 5 4 7 11 3 16 -3 5 0
8 7 7 7 -2 15 5 17 16 3 13 0 16 -10 10 -7 -5 -20 -7 -30 -6 -9 2 -19 -2 -22
-7 -7 -11 -38 -3 -32 8 2 3 0 15 -5 26 -7 17 -8 16 -6 -6 3 -32 24 -59 44 -59
18 0 12 -22 -8 -28 -11 -3 -11 -1 1 8 13 9 12 10 -5 7 -11 -2 -19 -8 -18 -13
1 -6 -4 -11 -12 -11 -8 0 -11 7 -7 16 4 12 0 11 -19 -4 -13 -11 -19 -13 -13
-5 19 26 22 58 7 80 -8 11 -16 32 -19 45 -4 25 3 30 36 26 9 -2 7 4 -7 14 -13
9 -20 22 -16 31 5 13 8 13 25 -3 17 -16 18 -16 12 0 -3 9 -10 17 -16 17 -5 0
-6 6 -2 13 6 9 4 9 -8 -1 -11 -9 -18 -10 -23 -2 -3 5 -11 10 -17 10 -6 0 -3
-9 7 -20 11 -12 13 -20 6 -20 -7 0 -9 -5 -6 -10 8 -13 -4 -52 -14 -46 -4 3 -8
-11 -9 -31 -2 -41 -18 -66 -30 -46 -4 7 -18 14 -30 16 -12 2 -25 6 -29 10 -11
12 -14 47 -3 47 9 0 15 -22 11 -43 -3 -17 17 4 22 23 3 13 -1 24 -14 30 -10 6
-19 19 -19 30 0 10 -5 22 -12 26 -8 5 -10 -2 -6 -22 3 -16 2 -40 -2 -54 -8
-24 -8 -24 -9 -2 -1 12 -7 22 -13 23 -7 0 -4 4 7 9 11 5 15 9 8 9 -8 1 -10 8
-6 19 6 15 5 16 -13 2 -12 -9 -15 -9 -7 -1 12 14 7 44 -6 37 -4 -3 -7 4 -8 14
-2 23 13 35 23 19 5 -8 3 -9 -6 -4 -8 5 -11 3 -8 -6 3 -8 13 -13 22 -12 11 0
15 -4 12 -13 -3 -8 -2 -13 2 -12 17 3 40 -15 35 -28 -4 -10 0 -13 13 -8 15 5
16 4 4 -4 -12 -9 -9 -13 13 -21 38 -15 42 -14 26 6 -13 16 -12 17 3 5 14 -11
18 -10 29 10 11 21 11 22 -4 9 -10 -7 -17 -9 -17 -3 0 5 7 12 15 16 8 3 15 10
15 16 0 6 -4 8 -10 5 -9 -5 -15 15 -11 38 0 4 -4 7 -10 7 -5 0 -7 5 -4 11 5 7
15 3 29 -10 36 -34 50 -23 21 15 -15 19 -15 19 -8 -1 6 -19 5 -19 -13 -4 -10
9 -26 14 -34 12 -10 -4 -9 -1 3 9 18 14 15 48 -5 48 -5 0 -6 5 -3 10 3 6 1 10
-5 10 -6 0 -9 3 -6 8 2 4 -2 18 -10 32 -14 25 -14 24 -8 -10 3 -19 14 -44 25
-56 18 -19 18 -21 2 -19 -10 1 -29 8 -43 15 -14 8 -30 13 -36 12 -6 -1 -17 5
-24 13 -8 9 -9 15 -4 14 21 -4 26 2 13 19 -13 15 -12 16 3 4 10 -8 19 -9 22
-3 4 5 -3 12 -14 16 -11 3 -20 11 -20 16 0 13 47 -19 54 -38 3 -8 3 -19 0 -25
-4 -6 0 -14 7 -19 22 -14 36 -10 17 5 -10 7 -15 16 -12 19 3 3 -1 20 -10 38
-9 17 -14 41 -12 53 2 11 1 15 -1 7 -4 -12 -6 -12 -15 0 -7 10 -8 8 -3 -8 9
-34 -1 -28 -14 7 -6 18 -6 28 -1 25 14 -9 12 9 -2 24 -11 11 -10 12 1 6 10 -6
12 -4 5 6 -11 18 -13 117 -3 146 6 17 5 21 -6 17 -7 -3 -12 -13 -9 -22 3 -9
-1 -7 -7 6 -13 24 -29 30 -29 10 0 -21 -13 1 -14 24 -1 13 -5 28 -9 34 -4 7 0
14 8 18 8 3 17 1 20 -4 4 -6 2 -10 -3 -10 -6 0 -8 -9 -5 -20 7 -26 19 -26 26
0 6 22 -15 43 -49 47 -19 3 -23 0 -18 -14 3 -12 2 -11 -5 2 -5 11 -14 36 -20
55 -10 35 -10 35 -6 -10 3 -25 2 -39 -1 -32 -3 6 -9 10 -14 7 -4 -2 -6 10 -4
28 1 17 0 26 -3 20 -7 -18 -33 -16 -33 3 0 8 5 12 11 8 8 -4 8 0 0 15 -7 12
-9 26 -6 32 4 6 -3 8 -19 5 -14 -3 -29 0 -32 6 -4 7 -2 8 4 4 7 -4 12 -1 13 6
0 9 2 10 5 1 3 -7 11 -10 19 -7 8 3 20 -6 30 -23 15 -26 15 -27 9 -3 l-6 25
17 -24 c14 -18 19 -20 26 -10 7 11 10 9 15 -8 4 -13 10 -21 14 -18 5 3 11 1
15 -5 4 -6 11 -7 17 -4 5 4 24 -4 40 -16 17 -13 28 -18 24 -11 -4 6 -2 11 5
11 8 0 8 4 -1 15 -9 11 -9 15 -1 15 7 0 9 5 6 10 -4 6 -9 8 -13 6 -4 -2 -8 7
-8 20 l-2 24 20 -23 c11 -12 16 -15 12 -7 -4 8 -13 22 -21 31 -8 9 -13 20 -12
25 4 15 -18 59 -35 73 -9 7 -13 18 -9 24 3 5 1 7 -4 4 -6 -4 -16 0 -23 8 -7 8
-9 15 -5 15 5 0 1 8 -8 18 -10 10 -14 22 -10 27 5 4 2 5 -5 1 -11 -6 -10 -12
4 -27 9 -10 13 -19 8 -19 -12 0 -36 39 -30 49 3 4 1 21 -4 37 l-8 29 -2 -35
-2 -35 -9 29 c-10 34 -9 35 19 41 12 2 30 8 39 14 12 6 22 6 30 -1 7 -6 23 -8
36 -6z m154 -4 c48 -28 206 -147 215 -162 10 -15 10 -7 -1 32 -11 36 -5 41 16
15 8 -10 11 -12 7 -4 -4 7 7 3 24 -9 17 -13 33 -29 36 -37 3 -7 11 -13 18 -13
6 0 0 12 -14 28 -29 31 -48 64 -48 84 0 7 12 0 25 -15 16 -17 25 -23 25 -14 0
8 6 17 14 20 38 15 74 -22 110 -113 16 -41 76 -260 70 -260 -1 0 -13 24 -27
53 -17 34 -24 61 -20 76 5 20 3 23 -10 18 -11 -4 -26 6 -47 31 -24 29 -30 32
-25 15 9 -33 -6 -28 -33 10 l-23 32 4 -36 c2 -20 8 -43 12 -50 4 -8 -5 2 -21
21 -55 70 -142 148 -248 223 -109 78 -129 96 -59 55z m-306 -1 c-6 -8 -7 -18
-3 -23 4 -4 -1 -2 -10 5 -19 14 -25 26 -9 16 5 -3 12 -1 16 5 3 5 9 10 12 10
3 0 0 -6 -6 -13z m733 -45 c30 -32 63 -66 72 -77 8 -11 6 -4 -5 16 -23 40 -26
59 -11 59 20 0 62 -55 95 -122 18 -37 55 -93 82 -125 26 -31 42 -53 34 -48
-11 6 -13 4 -8 -8 3 -10 2 -17 -2 -17 -14 0 -21 28 -9 32 7 3 -1 13 -16 24
-30 20 -52 42 -85 84 -15 19 -13 11 7 -30 23 -48 27 -70 30 -176 2 -66 -1
-136 -6 -155 -13 -41 -57 -147 -65 -155 -7 -7 18 90 27 105 9 14 -12 138 -30
178 -8 17 -14 36 -14 42 0 15 -45 167 -68 226 -10 28 -40 80 -65 116 -26 37
-47 72 -47 78 0 25 31 8 84 -47z m-1570 -13 c-16 -17 -38 -35 -49 -41 -11 -6
-2 8 20 31 22 22 44 41 49 41 6 0 -3 -14 -20 -31z m82 -15 c-5 -12 -2 -15 11
-10 15 6 15 4 -2 -14 -10 -11 -13 -20 -7 -20 7 0 12 -7 12 -16 0 -9 5 -12 13
-8 8 5 8 2 -2 -9 -15 -19 -8 -22 19 -7 29 16 34 -6 9 -40 -27 -36 -33 -37 -46
-7 l-11 22 -11 -28 c-7 -18 -15 -26 -23 -21 -9 5 -9 3 0 -7 11 -12 15 -12 26
3 11 15 13 15 23 -1 9 -14 2 -28 -33 -75 -24 -32 -44 -63 -44 -69 0 -7 -5 -5
-10 3 -8 13 -10 12 -10 -3 0 -14 -4 -16 -16 -9 -13 7 -24 2 -46 -23 -16 -19
-28 -37 -27 -42 1 -4 -1 -26 -6 -48 -12 -62 -40 -87 -47 -42 -3 19 -6 18 -22
-15 -18 -38 -34 -53 -21 -20 4 9 9 28 11 42 3 14 9 27 15 28 5 2 9 14 9 26 0
68 47 177 96 221 6 6 28 42 49 80 44 81 111 162 91 109z m304 6 c0 -5 -5 -10
-11 -10 -5 0 -7 5 -4 10 3 6 8 10 11 10 2 0 4 -4 4 -10z m1339 -4 c10 -11 10
-20 0 -37 l-12 -23 -14 27 c-20 40 0 65 26 33z m-1514 -56 c3 -5 2 -10 -4 -10
-5 0 -13 5 -16 10 -3 6 -2 10 4 10 5 0 13 -4 16 -10z m775 -80 c0 -10 6 -21
13 -23 7 -4 6 -6 -4 -6 -11 -1 -18 9 -21 28 -2 17 -1 28 4 25 4 -3 8 -14 8
-24z m-255 -60 c-3 -5 -13 -6 -21 -3 -12 4 -13 8 -3 14 15 9 32 2 24 -11z
m-609 -18 c-17 -16 -18 -16 -5 5 7 12 15 20 18 17 3 -2 -3 -12 -13 -22z m636
-7 c3 -13 1 -22 -3 -19 -9 5 -13 44 -5 44 2 0 6 -11 8 -25z m203 5 c-4 -6 -1
-19 6 -28 12 -16 12 -16 -5 0 -16 14 -15 38 0 38 3 0 2 -5 -1 -10z m-147 -23
c6 3 12 1 12 -4 0 -18 -37 -11 -49 10 -13 21 -13 21 5 6 10 -9 25 -14 32 -12z
m712 -3 c0 22 15 20 17 -2 2 -29 -33 -24 -46 6 l-11 27 20 -24 c15 -18 20 -19
20 -7z m-82 -9 c-3 -3 -9 2 -12 12 -6 14 -5 15 5 6 7 -7 10 -15 7 -18z m-439
-15 c11 -24 11 -24 -3 -6 -9 11 -16 24 -16 30 0 12 5 7 19 -24z m581 20 c0 -5
-5 -10 -11 -10 -5 0 -7 5 -4 10 3 6 8 10 11 10 2 0 4 -4 4 -10z m1455 -5 c22
-8 68 -15 101 -15 l62 0 44 -52 c51 -62 78 -103 78 -119 0 -17 -42 32 -62 72
-11 22 -17 28 -17 16 -1 -10 -5 -16 -10 -13 -5 4 -22 1 -37 -4 -33 -13 -43 -2
-45 50 l-1 35 -8 -40 c-4 -22 -6 -45 -3 -51 5 -14 -66 -24 -126 -18 -53 5 -62
10 -54 32 4 13 2 13 -10 -3 -16 -20 -16 -19 -17 8 0 16 4 26 9 23 5 -3 11 3
14 13 3 14 -1 19 -20 19 -31 0 -32 2 -26 35 5 24 9 27 47 27 22 -1 59 -7 81
-15z m-1650 -43 c-3 -3 -11 0 -18 7 -9 10 -8 11 6 5 10 -3 15 -9 12 -12z
m-1417 -65 c1 -23 -7 -42 -24 -60 -30 -32 -41 -35 -20 -6 8 12 12 27 10 33 -6
16 13 66 24 66 5 0 9 -15 10 -33z m2916 27 c9 -4 16 -17 15 -33 0 -23 -1 -24
-9 -6 l-9 20 0 -20 c-1 -17 -3 -17 -11 -5 -10 15 -14 50 -6 50 2 0 11 -3 20
-6z m33 -36 c-3 -8 -6 -5 -6 6 -1 11 2 17 5 13 3 -3 4 -12 1 -19z m-1077 -7
c0 -5 -7 -14 -15 -21 -13 -11 -13 -15 -3 -22 10 -6 10 -10 -2 -18 -13 -9 -13
-10 0 -10 13 0 13 -1 0 -10 -10 -6 -11 -10 -2 -10 16 0 15 -25 -3 -43 -8 -8
-11 -18 -7 -23 4 -5 -1 -2 -10 5 -13 9 -15 18 -8 30 5 10 9 29 9 42 1 13 1 34
1 47 0 12 5 22 11 22 5 0 7 5 4 10 -3 6 1 10 9 10 9 0 16 -4 16 -9z m-861 -88
c8 -16 8 -21 -2 -19 -20 3 -37 16 -37 29 0 7 4 6 10 -3 8 -13 10 -12 10 4 0
22 2 20 19 -11z m958 5 c-3 -8 -6 -5 -6 6 -1 11 2 17 5 13 3 -3 4 -12 1 -19z
m112 -22 c7 -8 8 -17 3 -20 -6 -3 -12 3 -15 14 -6 24 -4 25 12 6z m-1095 -14
c3 -5 -1 -9 -9 -9 -8 0 -12 4 -9 9 3 4 7 8 9 8 2 0 6 -4 9 -8z m-814 -12 c0
-5 -5 -10 -11 -10 -5 0 -7 5 -4 10 3 6 8 10 11 10 2 0 4 -4 4 -10z m837 -22
c-3 -7 -5 -2 -5 12 0 14 2 19 5 13 2 -7 2 -19 0 -25z m1014 8 c15 -18 19 -19
35 -6 10 8 15 10 11 4 -4 -7 0 -17 7 -24 8 -6 14 -20 13 -31 -1 -16 -9 -12
-45 24 l-44 42 5 -40 c4 -22 4 -33 0 -25 -3 8 -11 29 -18 46 -11 27 -11 31 3
31 9 0 24 -10 33 -21z m-2155 -12 c-6 -31 -16 -45 -16 -21 0 18 10 47 16 47 3
0 2 -12 0 -26z m34 22 c0 -3 -4 -8 -10 -11 -5 -3 -10 -1 -10 4 0 6 5 11 10 11
6 0 10 -2 10 -4z m2196 -16 c0 -12 -4 -16 -9 -11 -5 5 -6 14 -3 20 10 15 12
14 12 -9z m1120 -4 c10 -8 19 -19 19 -25 0 -6 5 -11 10 -12 14 -1 45 -30 58
-54 8 -16 3 -15 -27 8 -29 23 -40 26 -51 17 -8 -6 -24 -10 -37 -8 -18 2 -23
10 -25 36 -1 36 -13 55 -20 35 -3 -7 -9 -13 -14 -13 -16 0 -59 -48 -59 -64 0
-9 -6 -13 -14 -10 -8 3 -13 11 -10 17 2 7 -14 23 -36 37 l-40 25 32 12 c48 17
190 16 214 -1z m-1796 0 c0 -3 -4 -8 -10 -11 -5 -3 -10 -1 -10 4 0 6 5 11 10
11 6 0 10 -2 10 -4z m-1590 -21 c0 -8 -4 -15 -10 -15 -5 0 -7 7 -4 15 4 8 8
15 10 15 2 0 4 -7 4 -15z m2006 -31 c-9 -6 -13 -14 -9 -17 3 -4 2 -7 -4 -7 -5
0 -9 15 -9 34 1 33 2 34 19 18 16 -15 17 -18 3 -28z m325 -2 c-7 -2 -18 1 -23
6 -8 8 -4 9 13 5 13 -4 18 -8 10 -11z m-31 -17 c11 -13 10 -14 -4 -9 -9 3 -16
10 -16 15 0 13 6 11 20 -6z m54 1 c-3 -9 -12 -12 -22 -9 -15 6 -9 11 25 22 1
1 0 -5 -3 -13z m-2340 -31 c3 -8 1 -15 -4 -15 -6 0 -10 7 -10 15 0 8 2 15 4
15 2 0 6 -7 10 -15z m1586 -1 c0 -8 -19 -13 -24 -6 -3 5 1 9 9 9 8 0 15 -2 15
-3z m750 -8 c0 -3 -4 -8 -10 -11 -5 -3 -10 -1 -10 4 0 6 5 11 10 11 6 0 10 -2
10 -4z m-365 -85 c2 -17 0 -29 -4 -27 -3 3 -8 19 -9 37 -3 41 7 33 13 -10z
m1145 -16 c154 -50 215 -75 262 -107 26 -18 48 -36 48 -40 0 -5 5 -8 11 -8 5
0 7 6 3 13 -5 9 -4 9 6 0 11 -10 11 -15 1 -27 -11 -13 -16 -13 -42 6 -15 12
-26 25 -23 30 3 4 1 8 -5 8 -5 0 -14 -6 -18 -14 -10 -17 -73 -29 -73 -14 0 6
-7 8 -15 4 -16 -6 -105 24 -105 36 0 4 -6 8 -13 8 -14 0 -31 27 -42 68 -4 12
-14 22 -25 22 -10 0 -20 6 -23 13 -2 7 -10 0 -17 -16 -12 -24 -19 -27 -52 -25
-40 2 -47 13 -28 49 15 26 58 25 150 -6z m445 -11 c-8 -16 -15 -23 -15 -16 0
13 22 53 27 48 2 -2 -3 -16 -12 -32z m-2354 -35 c6 -13 7 -19 1 -15 -6 3 -12
1 -14 -6 -3 -7 -7 -5 -11 6 -5 11 -3 15 5 10 8 -5 9 -2 5 9 -9 24 0 21 14 -4z
m770 -25 c6 -8 4 -14 -6 -18 -12 -4 -15 2 -14 32 1 21 3 29 6 17 3 -11 9 -25
14 -31z m-726 6 c-3 -5 1 -10 7 -13 10 -4 10 -7 0 -18 -11 -12 -13 -12 -10 1
2 8 -3 14 -9 13 -7 -2 -13 2 -13 7 0 6 5 10 11 10 8 0 7 6 -2 18 -13 15 -12
16 3 3 10 -7 16 -17 13 -21z m2296 -17 c-12 -20 -14 -14 -5 12 4 9 9 14 11 11
3 -2 0 -13 -6 -23z m-2251 -56 c0 -4 -6 -2 -14 5 -8 7 -12 17 -9 22 5 8 23
-12 23 -27z m270 29 c0 -2 -8 -10 -17 -17 -16 -13 -17 -12 -4 4 13 16 21 21
21 13z m400 -17 c0 -5 -4 -9 -10 -9 -5 0 -10 7 -10 16 0 8 5 12 10 9 6 -3 10
-10 10 -16z m-2074 -88 c2 -39 0 -72 -5 -75 -5 -3 -9 31 -10 76 -2 99 10 98
15 -1z m2100 67 c4 -7 3 -8 -4 -4 -7 4 -12 1 -12 -8 0 -9 -7 -16 -15 -16 -18
0 -20 26 -2 33 20 9 25 8 33 -5z m-399 -28 c1 -11 -2 -20 -7 -20 -6 0 -7 17
-1 38 3 8 7 -1 8 -18z m-1389 -27 c-9 -8 -28 -17 -43 -18 -15 -2 -24 -1 -22 2
3 2 9 5 14 5 4 0 19 9 32 19 28 22 42 16 19 -8z m2157 17 c3 -5 1 -10 -4 -10
-6 0 -11 5 -11 10 0 6 2 10 4 10 3 0 8 -4 11 -10z m-2415 -30 c0 -5 -2 -10 -4
-10 -3 0 -8 5 -11 10 -3 6 -1 10 4 10 6 0 11 -4 11 -10z m2436 -7 c4 -10 6
-21 6 -25 -1 -5 3 -8 8 -8 6 0 10 -4 10 -10 0 -21 -17 -8 -32 25 -8 19 -12 35
-8 35 4 0 11 -8 16 -17z m-1050 -28 c-3 -8 -1 -15 3 -15 5 0 7 -9 4 -20 -3
-11 -13 -20 -22 -20 -13 0 -13 2 -2 9 8 5 11 16 7 26 -3 9 -4 21 0 26 9 15 17
10 10 -6z m1084 -45 c0 -5 -5 -10 -11 -10 -5 0 -7 5 -4 10 3 6 8 10 11 10 2 0
4 -4 4 -10z m-1131 -16 c1 -1 1 -7 0 -12 -2 -5 -17 0 -34 10 l-30 19 30 -7
c17 -4 32 -8 34 -10z m41 -28 c0 -8 -4 -17 -9 -20 -5 -4 -8 -18 -6 -32 l2 -25
-26 23 c-14 13 -28 24 -30 25 -1 1 0 7 5 14 5 9 10 6 15 -9 5 -12 13 -22 19
-22 6 0 9 4 5 9 -3 5 -1 12 5 16 5 3 10 11 10 16 0 6 -4 7 -10 4 -5 -3 -10 -1
-10 4 0 6 7 11 15 11 8 0 15 -6 15 -14z m1120 -41 c0 -5 -5 -3 -10 5 -5 8 -10
20 -10 25 0 6 5 3 10 -5 5 -8 10 -19 10 -25z m-113 10 c0 -8 -4 -12 -9 -9 -5
3 -6 10 -3 15 9 13 12 11 12 -6z m-942 -5 c3 -6 -1 -7 -9 -4 -18 7 -21 14 -7
14 6 0 13 -4 16 -10z m184 -24 c-3 -3 -11 5 -18 17 -13 21 -12 21 5 5 10 -10
16 -20 13 -22z m-174 -16 c-3 -5 -1 -10 4 -10 6 0 11 5 11 10 0 6 5 10 12 10
8 0 7 -6 -4 -16 -16 -16 -43 -11 -33 7 4 5 8 9 11 9 3 0 2 -4 -1 -10z m139
-45 c-4 -8 -11 -15 -16 -15 -6 0 -5 6 2 15 7 8 14 15 16 15 2 0 1 -7 -2 -15z
m46 -30 c-13 -14 -27 -25 -32 -25 -9 0 42 49 51 50 3 0 -6 -11 -19 -25z m10
-20 c-13 -14 -27 -25 -32 -25 -9 0 42 49 51 50 3 0 -6 -11 -19 -25z m-60 -30
c0 -2 -10 -9 -22 -15 -22 -11 -22 -10 -4 4 21 17 26 19 26 11z m18 -25 c-7
-11 -15 -15 -17 -9 -2 6 3 15 10 20 20 12 21 11 7 -11z m952 16 c0 -3 -4 -8
-10 -11 -5 -3 -10 -1 -10 4 0 6 5 11 10 11 6 0 10 -2 10 -4z m-938 -38 c-7 -7
-12 -8 -12 -2 0 14 12 26 19 19 2 -3 -1 -11 -7 -17z m44 10 c4 -7 3 -8 -4 -4
-7 4 -12 2 -12 -4 0 -7 -10 -20 -22 -31 -15 -12 -18 -18 -9 -19 11 0 11 -4 -2
-18 -18 -19 -51 -22 -66 -6 -6 5 -4 14 4 21 9 8 16 9 20 3 3 -6 1 -10 -4 -10
-6 0 -11 -4 -11 -8 0 -14 43 -7 48 8 3 7 0 10 -7 6 -21 -13 -11 4 22 39 38 40
34 38 43 23z m-76 -29 c0 -14 -17 -10 -23 5 -4 10 -1 13 9 9 7 -3 14 -9 14
-14z m-43 -17 c-21 -23 -21 -31 -3 -51 13 -14 12 -16 -10 -16 -13 0 -24 5 -24
11 0 6 -7 17 -15 24 -17 14 -20 30 -4 30 5 0 8 -4 4 -9 -3 -5 -1 -12 5 -16 5
-3 10 1 10 10 0 9 5 13 10 10 6 -3 13 1 16 9 3 9 11 16 17 16 5 0 3 -8 -6 -18z
m1033 -16 c0 -3 -4 -8 -10 -11 -5 -3 -10 -1 -10 4 0 6 5 11 10 11 6 0 10 -2
10 -4z m7 -33 c-4 -3 -2 -12 3 -18 7 -9 7 -14 -2 -18 -8 -3 -14 5 -14 19 -1
13 3 24 9 24 6 0 7 -3 4 -7z m-949 -25 c-8 -12 -20 -24 -26 -26 -7 -2 -2 8 11
22 27 32 34 33 15 4z m-156 -38 c4 -3 6 -15 5 -27 -1 -22 -12 -22 -12 0 0 7
-8 11 -17 11 -14 -1 -15 2 -8 16 6 10 8 27 5 37 -3 10 0 7 7 -7 7 -14 16 -27
20 -30z m34 25 c14 -14 21 -25 16 -25 -5 0 -19 11 -32 25 -13 14 -20 25 -16
25 4 0 18 -11 32 -25z m1894 9 c0 -8 -4 -12 -10 -9 -5 3 -10 10 -10 16 0 5 5
9 10 9 6 0 10 -7 10 -16z m-1747 -11 c-6 -16 -3 -16 18 2 l24 20 -18 -21 c-19
-23 -14 -36 11 -27 10 3 4 -7 -13 -22 -17 -15 -23 -24 -13 -21 12 3 15 1 11
-10 -6 -16 -23 -19 -23 -3 0 5 -6 7 -12 3 -7 -4 -3 4 9 17 21 23 21 26 7 41
-9 9 -13 21 -10 27 11 17 16 13 9 -6z m937 -13 c0 -5 -5 -10 -11 -10 -5 0 -7
5 -4 10 3 6 8 10 11 10 2 0 4 -4 4 -10z m591 -18 c-11 -16 -28 -35 -38 -43
-11 -8 -9 -3 5 12 12 14 22 30 22 36 0 9 11 18 28 22 2 1 -6 -12 -17 -27z
m139 8 c-8 -5 -19 -10 -25 -10 -5 0 -3 5 5 10 8 5 20 10 25 10 6 0 3 -5 -5
-10z m-1690 -29 c0 -4 -10 -7 -22 -8 -13 0 -17 1 -10 4 6 3 10 9 7 14 -4 5 1
6 9 3 9 -3 16 -9 16 -13z m970 9 c0 -5 -5 -10 -11 -10 -5 0 -7 5 -4 10 3 6 8
10 11 10 2 0 4 -4 4 -10z m666 -5 c-23 -18 -36 -19 -36 -4 0 5 4 8 8 5 4 -2
14 -1 22 5 23 14 27 10 6 -6z m-1646 -76 c0 -18 -35 -27 -48 -13 -12 13 -10
14 14 8 20 -5 25 -4 22 7 -3 8 -11 13 -17 11 -7 -1 -10 2 -6 8 7 12 35 -5 35
-21z m30 16 c0 -12 -19 -12 -23 0 -4 9 -1 12 9 8 7 -3 14 -7 14 -8z m965 5
c-3 -5 -11 -10 -16 -10 -6 0 -7 5 -4 10 3 6 11 10 16 10 6 0 7 -4 4 -10z
m-1314 -17 c13 -16 12 -17 -3 -4 -17 13 -22 21 -14 21 2 0 10 -8 17 -17z
m1935 8 c-6 -9 -46 -22 -46 -15 0 3 10 9 23 14 29 11 29 11 23 1z m-1556 -24
c-12 -13 -17 -24 -11 -30 11 -11 3 -37 -11 -37 -7 0 -6 5 1 13 12 16 5 27 -18
27 -14 0 -14 -2 -1 -10 8 -5 10 -10 4 -10 -14 0 -40 30 -28 31 5 1 16 1 26 0
9 -1 19 3 23 8 4 7 -1 8 -12 4 -15 -6 -16 -4 -6 8 6 8 21 15 32 16 21 2 21 2
1 -20z m1415 3 c-3 -5 -1 -10 5 -10 6 0 8 -5 4 -11 -5 -8 -9 -7 -14 1 -4 7
-15 10 -24 7 -9 -4 -16 -2 -16 3 0 7 17 15 43 19 5 0 5 -3 2 -9z m48 -31 c-8
-8 -13 -7 -18 2 -5 8 -4 10 3 5 7 -4 12 -2 12 5 0 7 3 9 7 6 4 -4 2 -12 -4
-18z m-1559 -24 c-4 -8 -11 -15 -16 -15 -6 0 -5 6 2 15 7 8 14 15 16 15 2 0 1
-7 -2 -15z m114 -14 c-15 -19 -29 -28 -40 -25 -10 3 -18 1 -18 -5 0 -6 6 -11
13 -12 6 0 3 -4 -8 -9 -33 -14 -36 -11 -19 15 15 24 15 25 -2 26 -11 0 -14 3
-7 5 7 3 20 1 30 -4 13 -8 22 -5 40 14 31 34 39 30 11 -5z m929 -1 c1 -11 -2
-20 -5 -20 -4 0 -8 9 -9 20 -1 11 2 20 5 20 4 0 8 -9 9 -20z m440 -37 c-3 -10
-5 -4 -5 12 0 17 2 24 5 18 2 -7 2 -21 0 -30z m-439 -19 c0 -17 -3 -22 -8 -13
-5 6 -6 18 -3 26 8 19 11 16 11 -13z m-968 -8 c0 -2 -7 -7 -16 -10 -8 -3 -12
-2 -9 4 6 10 25 14 25 6z m1367 -18 c-3 -8 -6 -5 -6 6 -1 11 2 17 5 13 3 -3 4
-12 1 -19z m-1333 -26 c3 -5 -1 -9 -9 -9 -8 0 -12 4 -9 9 7 10 11 10 18 0z"/>
<path d="M2756 2447 c3 -10 9 -15 12 -12 3 3 0 11 -7 18 -10 9 -11 8 -5 -6z"/>
<path d="M1170 2069 c0 -5 5 -7 10 -4 6 3 10 8 10 11 0 2 -4 4 -10 4 -5 0 -10
-5 -10 -11z"/>
<path d="M2228 1693 c6 -2 9 -10 6 -15 -4 -7 -2 -8 5 -4 13 9 5 26 -12 25 -9
0 -8 -2 1 -6z"/>
<path d="M2260 1629 c0 -5 5 -7 10 -4 6 3 10 8 10 11 0 2 -4 4 -10 4 -5 0 -10
-5 -10 -11z"/>
<path d="M2267 1596 c-4 -10 -5 -21 -2 -24 9 -9 17 6 13 25 -3 17 -4 17 -11
-1z"/>
<path d="M1800 1528 c0 -19 2 -20 10 -8 13 19 13 30 0 30 -5 0 -10 -10 -10
-22z"/>
<path d="M1841 1524 c0 -11 3 -14 6 -6 3 7 2 16 -1 19 -3 4 -6 -2 -5 -13z"/>
<path d="M1936 1531 c-3 -5 2 -15 12 -22 15 -12 16 -12 5 2 -7 9 -10 19 -6 22
3 4 4 7 0 7 -3 0 -8 -4 -11 -9z"/>
<path d="M1860 1525 c0 -5 5 -17 10 -25 5 -8 10 -10 10 -5 0 6 -5 17 -10 25
-5 8 -10 11 -10 5z"/>
<path d="M1976 1507 c3 -10 9 -15 12 -12 3 3 0 11 -7 18 -10 9 -11 8 -5 -6z"/>
<path d="M1910 1444 c0 -8 5 -12 10 -9 6 4 8 11 5 16 -9 14 -15 11 -15 -7z"/>
<path d="M1912 1310 c0 -14 2 -19 5 -12 2 6 2 18 0 25 -3 6 -5 1 -5 -13z"/>
<path d="M2206 1243 c-6 -14 -5 -15 5 -6 7 7 10 15 7 18 -3 3 -9 -2 -12 -12z"/>
<path d="M2233 1160 c1 -11 6 -20 11 -20 5 0 1 -7 -10 -15 -18 -13 -18 -14 4
-8 17 4 21 10 16 22 -3 9 -7 22 -7 29 0 6 -4 12 -8 12 -4 0 -7 -9 -6 -20z"/>
<path d="M1910 1095 c-9 -10 -9 -15 -1 -15 6 0 11 5 11 11 0 5 5 7 12 3 7 -4
8 -3 4 4 -9 15 -11 15 -26 -3z"/>
<path d="M2229 1093 c-13 -16 -12 -17 4 -4 16 13 21 21 13 21 -2 0 -10 -8 -17
-17z"/>
<path d="M2047 1064 c-8 -9 11 -44 24 -44 6 0 3 7 -5 16 -9 8 -14 20 -11 25 7
10 1 12 -8 3z"/>
<path d="M2105 1050 c3 -5 8 -10 11 -10 2 0 4 5 4 10 0 6 -5 10 -11 10 -5 0
-7 -4 -4 -10z"/>
<path d="M2130 995 c0 -5 5 -17 10 -25 5 -8 10 -10 10 -5 0 6 -5 17 -10 25 -5
8 -10 11 -10 5z"/>
<path d="M1976 863 c-13 -13 -5 -25 12 -19 16 6 16 5 -1 -8 -16 -12 -16 -14
-1 -20 8 -3 16 -6 17 -6 1 0 3 11 3 24 2 24 -17 41 -30 29z"/>
<path d="M2090 780 c0 -13 18 -22 24 -11 3 5 -1 11 -9 15 -8 3 -15 1 -15 -4z"/>
<path d="M2185 760 c-3 -5 -1 -10 4 -10 6 0 11 5 11 10 0 6 -2 10 -4 10 -3 0
-8 -4 -11 -10z"/>
<path d="M2277 1762 c-6 -9 39 -102 59 -122 13 -13 14 -13 8 5 -5 11 -18 35
-31 54 -13 19 -19 37 -14 40 5 3 3 12 -5 18 -7 7 -15 9 -17 5z"/>
<path d="M2375 1690 c10 -11 20 -20 22 -20 2 0 -2 9 -9 20 -7 11 -17 20 -22
20 -5 0 -1 -9 9 -20z"/>
<path d="M2531 1681 c-8 -5 -9 -10 -3 -12 6 -2 14 -17 17 -34 7 -34 9 -42 19
-70 4 -11 13 -36 21 -57 7 -20 10 -49 8 -65 -5 -26 -4 -27 12 -11 17 16 17 20
1 85 -29 114 -48 173 -54 173 -4 0 -13 -4 -21 -9z m40 -68 c13 -16 12 -17 -3
-4 -17 13 -22 21 -14 21 2 0 10 -8 17 -17z"/>
<path d="M899 1593 c-13 -16 -12 -17 4 -4 9 7 17 15 17 17 0 8 -8 3 -21 -13z"/>
<path d="M780 1430 c-8 -5 -12 -12 -9 -15 4 -3 12 1 19 10 14 17 11 19 -10 5z"/>
<path d="M840 1450 c0 -5 5 -10 11 -10 5 0 7 5 4 10 -3 6 -8 10 -11 10 -2 0
-4 -4 -4 -10z"/>
<path d="M2920 1282 c0 -5 7 -15 15 -22 8 -7 15 -8 15 -2 0 5 -7 15 -15 22 -8
7 -15 8 -15 2z"/>
<path d="M2651 4094 c0 -11 3 -14 6 -6 3 7 2 16 -1 19 -3 4 -6 -2 -5 -13z"/>
<path d="M2655 4059 c-4 -6 -4 -13 -1 -16 3 -4 6 -1 6 6 0 7 5 9 10 6 6 -3 10
-1 10 4 0 14 -17 14 -25 0z"/>
<path d="M3225 3610 c3 -5 8 -10 11 -10 2 0 4 5 4 10 0 6 -5 10 -11 10 -5 0
-7 -4 -4 -10z"/>
<path d="M1792 3260 c0 -14 2 -19 5 -12 2 6 2 18 0 25 -3 6 -5 1 -5 -13z"/>
<path d="M3450 2926 c0 -2 7 -6 15 -10 8 -3 15 -1 15 4 0 6 -7 10 -15 10 -8 0
-15 -2 -15 -4z"/>
<path d="M1413 2913 c9 -2 23 -2 30 0 6 3 -1 5 -18 5 -16 0 -22 -2 -12 -5z"/>
<path d="M1360 2739 c0 -5 5 -7 10 -4 6 3 10 8 10 11 0 2 -4 4 -10 4 -5 0 -10
-5 -10 -11z"/>
<path d="M1470 2639 c0 -5 5 -7 10 -4 6 3 10 8 10 11 0 2 -4 4 -10 4 -5 0 -10
-5 -10 -11z"/>
<path d="M3150 2269 c0 -5 5 -7 10 -4 6 3 10 8 10 11 0 2 -4 4 -10 4 -5 0 -10
-5 -10 -11z"/>
<path d="M2812 1667 c1 -26 5 -50 10 -53 4 -3 5 3 1 12 -4 12 -3 15 5 10 17
-10 15 23 -3 54 -14 24 -14 23 -13 -23z"/>
<path d="M2892 1540 c34 -56 58 -68 32 -17 -16 30 -47 67 -58 67 -3 0 9 -22
26 -50z"/>
<path d="M2803 1520 c0 -25 2 -35 4 -22 2 12 2 32 0 45 -2 12 -4 2 -4 -23z"/>
<path d="M2820 1551 c0 -6 5 -13 10 -16 6 -4 22 -27 36 -53 14 -26 23 -40 20
-31 -2 9 0 22 4 29 10 16 -5 49 -29 67 -19 15 -41 17 -41 4z"/>
<path d="M2909 1443 c6 -13 19 -23 28 -23 9 0 14 1 12 3 -2 1 -15 11 -28 22
l-24 20 12 -22z"/>
<path d="M4260 1325 c0 -5 5 -17 10 -25 5 -8 10 -10 10 -5 0 6 -5 17 -10 25
-5 8 -10 11 -10 5z"/>
<path d="M4140 705 c-29 -30 -32 -38 -23 -57 7 -13 14 -30 16 -38 3 -8 5 4 5
27 -1 25 5 50 14 60 17 21 31 43 26 43 -2 0 -19 -16 -38 -35z"/>
</g>
</svg>
